<?xml version="1.0" encoding="UTF-8" standalone="no"?><svg xmlns="http://www.w3.org/2000/svg" xmlns:xlink="http://www.w3.org/1999/xlink" fill="#0d2840" height="40.5" preserveAspectRatio="xMidYMid meet" version="1" viewBox="3.4 3.4 41.1 40.5" width="41.1" zoomAndPan="magnify"><g><path d="M0,0H48V48H0Z" fill="none"/><g id="change1_1"><circle cx="32" cy="24" r="4"/></g><g id="change1_2"><circle cx="24" cy="16" r="4"/></g><g id="change1_3"><circle cx="24" cy="32" r="4"/></g><g id="change1_4"><path d="M24,32a2,2,0,0,1-2-2V18a2,2,0,0,1,4,0V30A2,2,0,0,1,24,32Z"/></g><g id="change1_5"><path d="M30,24a1.99,1.99,0,0,1-1.414-.586l-4-4a2,2,0,0,1,2.828-2.828l4,4A2,2,0,0,1,30,24Z"/></g><g id="change1_6"><path d="M22,16a1.99,1.99,0,0,1-1.414-.586l-3.8-3.8a2,2,0,0,1,2.828-2.828l3.8,3.8A2,2,0,0,1,22,16Z"/></g><g id="change1_7"><path d="M24,43.972a6.257,6.257,0,0,1-4.414-1.758h0l-13.8-13.8a6.423,6.423,0,0,1,0-8.828l13.8-13.8a6.422,6.422,0,0,1,8.829,0l13.8,13.8a6.423,6.423,0,0,1,0,8.828l-13.8,13.8A6.255,6.255,0,0,1,24,43.972ZM24,8.028a2.24,2.24,0,0,0-1.585.586l-13.8,13.8a2.442,2.442,0,0,0,0,3.172l13.8,13.8h0a2.53,2.53,0,0,0,3.17,0l13.8-13.8a2.442,2.442,0,0,0,0-3.172l-13.8-13.8A2.244,2.244,0,0,0,24,8.028Z"/></g></g></svg>